<?xml version="1.0" encoding="UTF-8" standalone="no"?>
<!-- Created with Inkscape (http://www.inkscape.org/) -->

<svg
   xmlns:dc="http://purl.org/dc/elements/1.1/"
   xmlns:cc="http://creativecommons.org/ns#"
   xmlns:rdf="http://www.w3.org/1999/02/22-rdf-syntax-ns#"
   xmlns:svg="http://www.w3.org/2000/svg"
   xmlns="http://www.w3.org/2000/svg"
   xmlns:xlink="http://www.w3.org/1999/xlink"
   xmlns:sodipodi="http://sodipodi.sourceforge.net/DTD/sodipodi-0.dtd"
   xmlns:inkscape="http://www.inkscape.org/namespaces/inkscape"
   width="1920"
   height="1080"
   viewBox="0 0 507.99999 285.75001"
   version="1.1"
   id="svg8"
   inkscape:version="0.92.2 (5c3e80d, 2017-08-06)"
   sodipodi:docname="streetcomplete-banner.svg"
   inkscape:export-filename="/home/rugk/Software/streetcomplete-banner_originalpng.png"
   inkscape:export-xdpi="96"
   inkscape:export-ydpi="96">
  <defs
     id="defs2">
    <linearGradient
       id="linearGradient5762">
      <stop
         offset="0"
         stop-color="#2d3335"
         id="stop5764" />
      <stop
         offset=".5"
         stop-color="#4c464a"
         id="stop5770" />
      <stop
         offset="1"
         stop-color="#384042"
         id="stop5766" />
    </linearGradient>
    <linearGradient
       id="linearGradient4680">
      <stop
         offset="0"
         id="stop4682" />
      <stop
         offset="1"
         stop-opacity="0"
         id="stop4684" />
    </linearGradient>
    <linearGradient
       x1="94.25"
       y1="-94.672"
       x2="9"
       gradientUnits="userSpaceOnUse"
       xlink:href="#linearGradient4680"
       y2="-179.97"
       id="linearGradient4686-3" />
    <linearGradient
       x1="50.75"
       y1="-114.44"
       x2="35.75"
       gradientUnits="userSpaceOnUse"
       xlink:href="#linearGradient4680"
       y2="-30.438"
       id="linearGradient4742-3" />
    <linearGradient
       x1="77.625"
       y1="-163.12"
       x2="115.25"
       gradientUnits="userSpaceOnUse"
       xlink:href="#linearGradient4680"
       y2="-74.625"
       id="linearGradient4734-3" />
    <linearGradient
       x1="56.5"
       y1="-50.438"
       x2="125.72"
       gradientUnits="userSpaceOnUse"
       xlink:href="#linearGradient4680"
       y2="7.0625"
       id="linearGradient4726-9" />
    <linearGradient
       x1="35"
       y1="-163.3"
       x2="180.75"
       gradientUnits="userSpaceOnUse"
       xlink:href="#linearGradient4680"
       y2="-146.8"
       id="linearGradient4710-2" />
    <linearGradient
       x1="57"
       y1="-141.11"
       x2="179"
       gradientUnits="userSpaceOnUse"
       xlink:href="#linearGradient4680"
       y2="-41.609"
       id="linearGradient4718-4" />
    <linearGradient
       x1="156"
       y1="-26.5"
       x2="208.25"
       gradientUnits="userSpaceOnUse"
       xlink:href="#linearGradient4680"
       y2="39.75"
       id="linearGradient4694-4" />
    <linearGradient
       x1="142.75"
       y1="-169.3"
       x2="235"
       gradientUnits="userSpaceOnUse"
       xlink:href="#linearGradient4680"
       y2="-77.297"
       id="linearGradient4702-4" />
    <linearGradient
       x1="214.25"
       y1="-161.36"
       x2="166.5"
       gradientUnits="userSpaceOnUse"
       xlink:href="#linearGradient4744-9"
       y2="-113.72"
       id="linearGradient4806-9" />
    <linearGradient
       id="linearGradient4744-9">
      <stop
         offset="0"
         stop-color="#fff"
         id="stop4746-3" />
      <stop
         offset="1"
         stop-opacity="0"
         stop-color="#fff"
         id="stop4748-8" />
    </linearGradient>
    <linearGradient
       x1="53.25"
       y1="-126.5"
       x2="57.656"
       gradientUnits="userSpaceOnUse"
       xlink:href="#linearGradient4744-9"
       y2="-62.469"
       id="linearGradient4790-3" />
    <linearGradient
       x1="39.5"
       y1="6.625"
       x2="75.719"
       gradientUnits="userSpaceOnUse"
       xlink:href="#linearGradient4744-9"
       y2="-17.125"
       id="linearGradient4758-2" />
    <linearGradient
       x1="102"
       y1="-162.34"
       x2="85.312"
       gradientUnits="userSpaceOnUse"
       xlink:href="#linearGradient4744-9"
       y2="-121.44"
       id="linearGradient4750-9" />
    <linearGradient
       x1="117.75"
       y1="-78.094"
       x2="63.5"
       gradientUnits="userSpaceOnUse"
       xlink:href="#linearGradient4744-9"
       y2="-14.75"
       id="linearGradient4782-5" />
    <linearGradient
       x1="180.69"
       y1="-125.12"
       x2="133.94"
       gradientUnits="userSpaceOnUse"
       xlink:href="#linearGradient4744-9"
       y2="-60.75"
       id="linearGradient4798-4" />
    <linearGradient
       x1="170.75"
       y1="-23.5"
       x2="130.22"
       gradientUnits="userSpaceOnUse"
       xlink:href="#linearGradient4744-9"
       y2="33.375"
       id="linearGradient4766-3" />
    <linearGradient
       x1="213.5"
       x2="181.75"
       y1="-76"
       gradientUnits="userSpaceOnUse"
       xlink:href="#linearGradient4744-9"
       y2="-5.6563"
       id="linearGradient4965" />
    <linearGradient
       x1="210.17"
       y1="72.064"
       gradientTransform="translate(0,-10)"
       x2="9"
       gradientUnits="userSpaceOnUse"
       xlink:href="#linearGradient4680"
       y2="-213.25"
       id="linearGradient5168" />
    <clipPath
       clipPathUnits="userSpaceOnUse"
       id="clipPath5383">
      <path
         d="m9 12.25s7.5 13 11.75 27.75 6.25 25.5 6.25 25.5-5.5 12.75-8.25 24.75-5.75 23-5.75 23 5.75 16 9.25 30 3.75 24.25 3.75 24.25-4 10.25-7.5 24.25-5 30.75-5 30.75 9.25-2 28.5 1.25 32.25 6 32.25 6 12.75-2.75 24-6.25 16.25-6.5 16.25-6.5 5.5 0.5 22.5 6.25 29.25 8.5 29.25 8.5 13-2.75 26-5.75 26.5-8 26.5-8-0.75-5 4.25-24.5 8.75-28 8.75-28-0.5-4.5-3.75-19.75-10-29.75-10-29.75 1.75-10.5 6.75-23.75 10.25-26.75 10.25-26.75-4.75-15.25-7.5-29.75-8.25-25.75-8.25-25.75-24.25 9-31.75 10.5-21 5.25-21 5.25-9.75-4.25-22-8.5-29.75-5.5-29.75-5.5-3.25 3.5-22 8-27.5 5.75-27.5 5.75-18.5-9-31.5-11.5-24-2-24.75-1.75z"
         fill="#ceeeab"
         id="path5385" />
    </clipPath>
    <clipPath
       clipPathUnits="userSpaceOnUse"
       id="clipPath5426">
      <path
         d="m9 12.25s7.5 13 11.75 27.75 6.25 25.5 6.25 25.5-5.5 12.75-8.25 24.75-5.75 23-5.75 23 5.75 16 9.25 30 3.75 24.25 3.75 24.25-4 10.25-7.5 24.25-5 30.75-5 30.75 9.25-2 28.5 1.25 32.25 6 32.25 6 12.75-2.75 24-6.25 16.25-6.5 16.25-6.5 5.5 0.5 22.5 6.25 29.25 8.5 29.25 8.5 13-2.75 26-5.75 26.5-8 26.5-8-0.75-5 4.25-24.5 8.75-28 8.75-28-0.5-4.5-3.75-19.75-10-29.75-10-29.75 1.75-10.5 6.75-23.75 10.25-26.75 10.25-26.75-4.75-15.25-7.5-29.75-8.25-25.75-8.25-25.75-24.25 9-31.75 10.5-21 5.25-21 5.25-9.75-4.25-22-8.5-29.75-5.5-29.75-5.5-3.25 3.5-22 8-27.5 5.75-27.5 5.75-18.5-9-31.5-11.5-24-2-24.75-1.75z"
         fill="#ceeeab"
         id="path5428" />
    </clipPath>
    <clipPath
       clipPathUnits="userSpaceOnUse"
       id="clipPath5466">
      <path
         d="m9 12.25s7.5 13 11.75 27.75 6.25 25.5 6.25 25.5-5.5 12.75-8.25 24.75-5.75 23-5.75 23 5.75 16 9.25 30 3.75 24.25 3.75 24.25-4 10.25-7.5 24.25-5 30.75-5 30.75 9.25-2 28.5 1.25 32.25 6 32.25 6 12.75-2.75 24-6.25 16.25-6.5 16.25-6.5 5.5 0.5 22.5 6.25 29.25 8.5 29.25 8.5 13-2.75 26-5.75 26.5-8 26.5-8-0.75-5 4.25-24.5 8.75-28 8.75-28-0.5-4.5-3.75-19.75-10-29.75-10-29.75 1.75-10.5 6.75-23.75 10.25-26.75 10.25-26.75-4.75-15.25-7.5-29.75-8.25-25.75-8.25-25.75-24.25 9-31.75 10.5-21 5.25-21 5.25-9.75-4.25-22-8.5-29.75-5.5-29.75-5.5-3.25 3.5-22 8-27.5 5.75-27.5 5.75-18.5-9-31.5-11.5-24-2-24.75-1.75z"
         fill="#ceeeab"
         id="path5468" />
    </clipPath>
    <radialGradient
       r="47"
       gradientTransform="matrix(1.0213,0,0,-1.0213,-212.72,173.83)"
       cx="128"
       cy="86"
       gradientUnits="userSpaceOnUse"
       id="radialGradient5751">
      <stop
         offset="0"
         stop-opacity="0"
         stop-color="#d0e9f2"
         id="stop5747" />
      <stop
         offset=".83933"
         stop-opacity="0"
         stop-color="#d0e9f2"
         id="stop5753" />
      <stop
         offset=".94309"
         stop-opacity=".28185"
         stop-color="#d0e9f2"
         id="stop5755" />
      <stop
         offset="1"
         stop-color="#d0e9f2"
         id="stop5749" />
    </radialGradient>
    <linearGradient
       x1="123"
       y1="150.38"
       gradientTransform="matrix(-1,0,0,1,46,0)"
       x2="133"
       gradientUnits="userSpaceOnUse"
       xlink:href="#linearGradient5762"
       y2="150.38"
       id="linearGradient5768" />
    <linearGradient
       x1="128"
       y1="134.36"
       gradientTransform="translate(-210)"
       x2="130.88"
       gradientUnits="userSpaceOnUse"
       xlink:href="#linearGradient5762"
       y2="143.36"
       id="linearGradient5778" />
    <linearGradient
       x1="123"
       x2="133"
       gradientTransform="matrix(-2,0,0,1.7699,174,-86.65)"
       y1="150.38"
       gradientUnits="userSpaceOnUse"
       y2="150.38"
       id="linearGradient5798">
      <stop
         offset="0"
         stop-color="#2d3335"
         id="stop5764-6" />
      <stop
         offset=".5"
         stop-color="#4c464a"
         id="stop5770-3" />
      <stop
         offset="1"
         stop-color="#384042"
         id="stop5766-6" />
    </linearGradient>
    <linearGradient
       x1="120"
       y1="186.5"
       gradientTransform="translate(-210)"
       x2="136"
       gradientUnits="userSpaceOnUse"
       y2="186.5"
       id="linearGradient5868">
      <stop
         offset="0"
         stop-color="#f9e295"
         id="stop5864" />
      <stop
         offset=".125"
         stop-color="#f7dd84"
         id="stop5876" />
      <stop
         offset=".20581"
         stop-color="#fff"
         id="stop5874" />
      <stop
         offset=".30113"
         stop-color="#f4ce51"
         id="stop5870" />
      <stop
         offset=".34120"
         stop-color="#f9e7aa"
         id="stop5872" />
      <stop
         offset="1"
         stop-color="#efbb0e"
         id="stop5866" />
    </linearGradient>
    <linearGradient
       x1="120"
       x2="136"
       gradientTransform="translate(-210,67)"
       y1="186.5"
       gradientUnits="userSpaceOnUse"
       y2="186.5"
       id="linearGradient5899">
      <stop
         offset="0"
         stop-color="#f9e295"
         id="stop5864-0" />
      <stop
         offset=".125"
         stop-color="#f7dd84"
         id="stop5876-0" />
      <stop
         offset=".20581"
         stop-color="#fff"
         id="stop5874-6" />
      <stop
         offset=".30113"
         stop-color="#f4ce51"
         id="stop5870-4" />
      <stop
         offset=".34120"
         stop-color="#f9e7aa"
         id="stop5872-4" />
      <stop
         offset="1"
         stop-color="#efbb0e"
         id="stop5866-3" />
    </linearGradient>
    <linearGradient
       x1="120"
       y1="186.5"
       gradientTransform="matrix(0.98427,0.98427,-0.98427,0.98427,66.992,-59.216)"
       x2="136"
       gradientUnits="userSpaceOnUse"
       y2="186.5"
       id="linearGradient6241">
      <stop
         offset="0"
         stop-color="#f9e295"
         id="stop5864-0-0" />
      <stop
         offset=".125"
         stop-color="#f7dd84"
         id="stop5876-0-12" />
      <stop
         offset=".20581"
         stop-color="#fff"
         id="stop5874-6-6" />
      <stop
         offset=".30113"
         stop-color="#f4ce51"
         id="stop5870-4-4" />
      <stop
         offset=".34120"
         stop-color="#f9e7aa"
         id="stop5872-4-85" />
      <stop
         offset="1"
         stop-color="#efbb0e"
         id="stop5866-3-62" />
    </linearGradient>
    <linearGradient
       x1="123"
       y1="150.38"
       gradientTransform="matrix(-1.9685,-1.9685,-1.7421,1.7421,596.19,167.51)"
       x2="133"
       gradientUnits="userSpaceOnUse"
       y2="150.38"
       id="linearGradient6244">
      <stop
         offset="0"
         stop-color="#2d3335"
         id="stop5764-6-1" />
      <stop
         offset=".5"
         stop-color="#4c464a"
         id="stop5770-3-6" />
      <stop
         offset="1"
         stop-color="#384042"
         id="stop5766-6-3" />
    </linearGradient>
    <linearGradient
       x1="120"
       y1="186.5"
       gradientTransform="matrix(0.98427,0.98427,-0.98427,0.98427,132.94,-125.16)"
       x2="136"
       gradientUnits="userSpaceOnUse"
       y2="186.5"
       id="linearGradient6247">
      <stop
         offset="0"
         stop-color="#f9e295"
         id="stop5864-8" />
      <stop
         offset=".125"
         stop-color="#f7dd84"
         id="stop5876-09" />
      <stop
         offset=".20581"
         stop-color="#fff"
         id="stop5874-2" />
      <stop
         offset=".30113"
         stop-color="#f4ce51"
         id="stop5870-3" />
      <stop
         offset=".34120"
         stop-color="#f9e7aa"
         id="stop5872-1" />
      <stop
         offset="1"
         stop-color="#efbb0e"
         id="stop5866-8" />
    </linearGradient>
    <linearGradient
       x1="123"
       y1="150.38"
       gradientTransform="matrix(-0.98427,-0.98427,-0.98427,0.98427,384.91,126.81)"
       x2="133"
       gradientUnits="userSpaceOnUse"
       xlink:href="#linearGradient5762"
       y2="150.38"
       id="linearGradient6250" />
    <linearGradient
       x1="128"
       y1="134.36"
       gradientTransform="matrix(0.98427,0.98427,-0.98427,0.98427,132.94,-125.16)"
       x2="130.88"
       gradientUnits="userSpaceOnUse"
       xlink:href="#linearGradient5762"
       y2="143.36"
       id="linearGradient6253" />
    <radialGradient
       r="47"
       gradientTransform="matrix(1.0052,1.0052,1.0052,-1.0052,-40.838,43.253)"
       cx="128"
       cy="86"
       gradientUnits="userSpaceOnUse"
       id="radialGradient6256">
      <stop
         offset="0"
         stop-opacity="0"
         stop-color="#d0e9f2"
         id="stop5747-3" />
      <stop
         offset=".83933"
         stop-opacity="0"
         stop-color="#d0e9f2"
         id="stop5753-6" />
      <stop
         offset=".94309"
         stop-opacity=".28185"
         stop-color="#d0e9f2"
         id="stop5755-9" />
      <stop
         offset="1"
         stop-color="#d0e9f2"
         id="stop5749-0" />
    </radialGradient>
    <linearGradient
       x1="108"
       x2="133"
       gradientTransform="matrix(-1.9685,-1.9685,-1.7421,1.7421,596.19,167.51)"
       y1="167.73"
       gradientUnits="userSpaceOnUse"
       xlink:href="#linearGradient4680"
       y2="150.38"
       id="linearGradient6279" />
    <radialGradient
       r="38.417"
       gradientTransform="matrix(1.2125,0,0,0.83915,-46.348,24.528)"
       cx="159.61"
       cy="72.588"
       gradientUnits="userSpaceOnUse"
       id="radialGradient6427">
      <stop
         offset="0"
         stop-color="#fff"
         id="stop6848" />
      <stop
         offset=".5"
         stop-opacity=".93050"
         stop-color="#fff"
         id="stop6852" />
      <stop
         offset="1"
         stop-opacity="0"
         stop-color="#fff"
         id="stop6850" />
    </radialGradient>
    <radialGradient
       gradientTransform="matrix(1.2125,0,0,0.83915,-45.92,25.814)"
       r="38.417"
       cy="72.588"
       cx="159.61"
       gradientUnits="userSpaceOnUse"
       id="radialGradient6482">
      <stop
         offset="0"
         stop-color="#fff"
         id="stop4746-3-8" />
      <stop
         offset="1"
         stop-opacity="0"
         stop-color="#fff"
         id="stop4748-8-3" />
    </radialGradient>
    <linearGradient
       x1="126.64"
       y1="29.815"
       gradientTransform="translate(0,-10)"
       x2="179.96"
       gradientUnits="userSpaceOnUse"
       y2="137.2"
       id="linearGradient6595">
      <stop
         offset="0"
         stop-color="#fff"
         id="stop6591" />
      <stop
         offset="1"
         stop-opacity="0"
         stop-color="#fff"
         id="stop6593" />
    </linearGradient>
    <linearGradient
       x1="126.64"
       x2="179.96"
       gradientTransform="matrix(-0.50295,0.1984,0.1972,-0.43254,276.16,123.42)"
       y1="29.815"
       gradientUnits="userSpaceOnUse"
       y2="137.2"
       id="linearGradient6614">
      <stop
         offset="0"
         stop-color="#fff"
         id="stop6591-6" />
      <stop
         offset="1"
         stop-opacity="0"
         stop-color="#fff"
         id="stop6593-1" />
    </linearGradient>
    <filter
       id="filter7286">
      <feGaussianBlur
         stdDeviation="4.2868936"
         id="feGaussianBlur7288" />
    </filter>
    <clipPath
       clipPathUnits="userSpaceOnUse"
       id="clipPath5466-2-3">
      <path
         d="m9 12.25s7.5 13 11.75 27.75 6.25 25.5 6.25 25.5-5.5 12.75-8.25 24.75-5.75 23-5.75 23 5.75 16 9.25 30 3.75 24.25 3.75 24.25-4 10.25-7.5 24.25-5 30.75-5 30.75 9.25-2 28.5 1.25 32.25 6 32.25 6 12.75-2.75 24-6.25 16.25-6.5 16.25-6.5 5.5 0.5 22.5 6.25 29.25 8.5 29.25 8.5 13-2.75 26-5.75 26.5-8 26.5-8-0.75-5 4.25-24.5 8.75-28 8.75-28-0.5-4.5-3.75-19.75-10-29.75-10-29.75 1.75-10.5 6.75-23.75 10.25-26.75 10.25-26.75-4.75-15.25-7.5-29.75-8.25-25.75-8.25-25.75-24.25 9-31.75 10.5-21 5.25-21 5.25-9.75-4.25-22-8.5-29.75-5.5-29.75-5.5-3.25 3.5-22 8-27.5 5.75-27.5 5.75-18.5-9-31.5-11.5-24-2-24.75-1.75z"
         fill="#ceeeab"
         id="path5468-3-2" />
    </clipPath>
    <clipPath
       clipPathUnits="userSpaceOnUse"
       id="clipPath5383-0-0">
      <path
         d="m9 12.25s7.5 13 11.75 27.75 6.25 25.5 6.25 25.5-5.5 12.75-8.25 24.75-5.75 23-5.75 23 5.75 16 9.25 30 3.75 24.25 3.75 24.25-4 10.25-7.5 24.25-5 30.75-5 30.75 9.25-2 28.5 1.25 32.25 6 32.25 6 12.75-2.75 24-6.25 16.25-6.5 16.25-6.5 5.5 0.5 22.5 6.25 29.25 8.5 29.25 8.5 13-2.75 26-5.75 26.5-8 26.5-8-0.75-5 4.25-24.5 8.75-28 8.75-28-0.5-4.5-3.75-19.75-10-29.75-10-29.75 1.75-10.5 6.75-23.75 10.25-26.75 10.25-26.75-4.75-15.25-7.5-29.75-8.25-25.75-8.25-25.75-24.25 9-31.75 10.5-21 5.25-21 5.25-9.75-4.25-22-8.5-29.75-5.5-29.75-5.5-3.25 3.5-22 8-27.5 5.75-27.5 5.75-18.5-9-31.5-11.5-24-2-24.75-1.75z"
         fill="#ceeeab"
         id="path5385-7-8" />
    </clipPath>
    <clipPath
       clipPathUnits="userSpaceOnUse"
       id="clipPath5426-1-6">
      <path
         d="m9 12.25s7.5 13 11.75 27.75 6.25 25.5 6.25 25.5-5.5 12.75-8.25 24.75-5.75 23-5.75 23 5.75 16 9.25 30 3.75 24.25 3.75 24.25-4 10.25-7.5 24.25-5 30.75-5 30.75 9.25-2 28.5 1.25 32.25 6 32.25 6 12.75-2.75 24-6.25 16.25-6.5 16.25-6.5 5.5 0.5 22.5 6.25 29.25 8.5 29.25 8.5 13-2.75 26-5.75 26.5-8 26.5-8-0.75-5 4.25-24.5 8.75-28 8.75-28-0.5-4.5-3.75-19.75-10-29.75-10-29.75 1.75-10.5 6.75-23.75 10.25-26.75 10.25-26.75-4.75-15.25-7.5-29.75-8.25-25.75-8.25-25.75-24.25 9-31.75 10.5-21 5.25-21 5.25-9.75-4.25-22-8.5-29.75-5.5-29.75-5.5-3.25 3.5-22 8-27.5 5.75-27.5 5.75-18.5-9-31.5-11.5-24-2-24.75-1.75z"
         fill="#ceeeab"
         id="path5428-0-9" />
    </clipPath>
    <linearGradient
       x1="210.17"
       y1="72.064"
       gradientTransform="translate(0,192)"
       x2="9"
       gradientUnits="userSpaceOnUse"
       y2="-213.25"
       id="linearGradient5168-2-9">
      <stop
         offset="0"
         id="stop4682-27-3" />
      <stop
         offset="1"
         stop-opacity="0"
         id="stop4684-36-5" />
    </linearGradient>
    <clipPath
       clipPathUnits="userSpaceOnUse"
       id="clipPath8617">
      <path
         fill="url(#radialGradient8621)"
         d="m123.62 141.06c20.832 20.243 54.607 19.289 75.439-2.132s20.832-55.196 0-75.439-54.607-19.289-75.439 2.132-20.832 55.196 0 75.439z"
         id="path8619" />
    </clipPath>
    <radialGradient
       r="47"
       gradientTransform="matrix(.80254 .77986 .80254 -.82522 -10.402 73.423)"
       cx="128"
       cy="86"
       gradientUnits="userSpaceOnUse"
       id="radialGradient8621">
      <stop
         offset="0"
         stop-opacity="0"
         stop-color="#d0e9f2"
         id="stop5747-3-73" />
      <stop
         offset=".83933"
         stop-opacity="0"
         stop-color="#d0e9f2"
         id="stop5753-6-08" />
      <stop
         offset=".94309"
         stop-opacity=".28185"
         stop-color="#d0e9f2"
         id="stop5755-9-5" />
      <stop
         offset="1"
         stop-color="#d0e9f2"
         id="stop5749-0-4" />
    </radialGradient>
    <filter
       id="filter8661">
      <feGaussianBlur
         stdDeviation="6.3109704"
         id="feGaussianBlur8663" />
    </filter>
    <filter
       id="filter8725">
      <feGaussianBlur
         stdDeviation="4.4575"
         id="feGaussianBlur8727" />
    </filter>
    <linearGradient
       x1="122"
       y1="245.45"
       x2="122"
       gradientUnits="userSpaceOnUse"
       y2="4.302"
       id="linearGradient8735">
      <stop
         offset="0"
         id="stop8731" />
      <stop
         offset="1"
         stop-opacity="0"
         id="stop8733" />
    </linearGradient>
    <clipPath
       clipPathUnits="userSpaceOnUse"
       id="clipPath8750">
      <path
         fill="url(#linearGradient8754)"
         d="m9 22.578s7.5 12.393 11.75 26.8c4.25 14.406 6.25 24.995 6.25 24.995s-5.5 13.195-8.25 25.417c-2.75 12.22-5.75 23.46-5.75 23.46s5.75 15.535 9.25 29.252 3.75 23.947 3.75 23.947-4 10.574-7.5 24.857-5 31.154-5 31.154 9.25-2.7481 28.5-1.055 32.25 3.3917 32.25 3.3917 12.75-3.7812 24-8.1911 16.25-7.8143 16.25-7.8143 5.5 0.0552 22.5 4.4302c17 4.3751 29.25 6.1343 29.25 6.1343s13-3.8014 26-7.8528 26.5-10.143 26.5-10.143-0.75-4.9393 4.25-24.844c5-19.904 8.75-28.708 8.75-28.708s-0.5145-4.4553-3.75-19.447c-1.75-8.1085-2.25-4.068-2.25-4.068s16.264-26.155 16.5-40.334c0.25-15.02-7.25-36.413-7.25-36.413s-4.75-14.866-7.5-29.143c-2.75-14.278-8.25-25.083-8.25-25.083s-24.25 10.961-31.75 13.068c-7.5 2.1066-21 6.9484-21 6.9484s-9.75-3.4614-22-6.7207c-12.25-3.2592-29.75-3.0939-29.75-3.0939s-3.25 3.7629-22 9.7793c-18.75 6.0165-27.5 7.9741-27.5 7.9741s-18.5-7.5038-31.5-8.9524-24-0.05894-24.75 0.25172z"
         opacity=".039130"
         id="path8752" />
    </clipPath>
    <linearGradient
       x1="210.17"
       y1="72.064"
       gradientTransform="matrix(1 -.080878 0 1 0 203.06)"
       x2="9"
       gradientUnits="userSpaceOnUse"
       y2="-213.25"
       id="linearGradient8754">
      <stop
         offset="0"
         id="stop4682-9" />
      <stop
         offset="1"
         stop-opacity="0"
         id="stop4684-38" />
    </linearGradient>
    <linearGradient
       x1="94.25"
       y1="-94.672"
       x2="9"
       gradientUnits="userSpaceOnUse"
       xlink:href="#linearGradient4680"
       y2="-179.97"
       id="linearGradient4686-3-9" />
    <linearGradient
       x1="50.75"
       y1="-114.44"
       x2="35.75"
       gradientUnits="userSpaceOnUse"
       xlink:href="#linearGradient4680"
       y2="-30.438"
       id="linearGradient4742-3-4" />
    <linearGradient
       x1="77.625"
       y1="-163.12"
       x2="115.25"
       gradientUnits="userSpaceOnUse"
       xlink:href="#linearGradient4680"
       y2="-74.625"
       id="linearGradient4734-3-6" />
    <linearGradient
       x1="56.5"
       y1="-50.438"
       x2="125.72"
       gradientUnits="userSpaceOnUse"
       xlink:href="#linearGradient4680"
       y2="7.0625"
       id="linearGradient4726-9-9" />
    <linearGradient
       x1="35"
       y1="-163.3"
       x2="180.75"
       gradientUnits="userSpaceOnUse"
       xlink:href="#linearGradient4680"
       y2="-146.8"
       id="linearGradient4710-2-2" />
    <linearGradient
       x1="57"
       y1="-141.11"
       x2="179"
       gradientUnits="userSpaceOnUse"
       xlink:href="#linearGradient4680"
       y2="-41.609"
       id="linearGradient4718-4-2" />
    <linearGradient
       x1="156"
       y1="-26.5"
       x2="208.25"
       gradientUnits="userSpaceOnUse"
       xlink:href="#linearGradient4680"
       y2="39.75"
       id="linearGradient4694-4-4" />
    <linearGradient
       x1="142.75"
       y1="-169.3"
       x2="235"
       gradientUnits="userSpaceOnUse"
       xlink:href="#linearGradient4680"
       y2="-77.297"
       id="linearGradient4702-4-7" />
    <linearGradient
       x1="214.25"
       y1="-161.36"
       x2="166.5"
       gradientUnits="userSpaceOnUse"
       xlink:href="#linearGradient4744-9"
       y2="-113.72"
       id="linearGradient4806-9-7" />
    <linearGradient
       x1="53.25"
       y1="-126.5"
       x2="57.656"
       gradientUnits="userSpaceOnUse"
       xlink:href="#linearGradient4744-9"
       y2="-62.469"
       id="linearGradient4790-3-8" />
    <linearGradient
       x1="39.5"
       y1="6.625"
       x2="75.719"
       gradientUnits="userSpaceOnUse"
       xlink:href="#linearGradient4744-9"
       y2="-17.125"
       id="linearGradient4758-2-1" />
    <linearGradient
       x1="102"
       y1="-162.34"
       x2="85.312"
       gradientUnits="userSpaceOnUse"
       xlink:href="#linearGradient4744-9"
       y2="-121.44"
       id="linearGradient4750-9-2" />
    <linearGradient
       x1="117.75"
       y1="-78.094"
       x2="63.5"
       gradientUnits="userSpaceOnUse"
       xlink:href="#linearGradient4744-9"
       y2="-14.75"
       id="linearGradient4782-5-8" />
    <linearGradient
       x1="180.69"
       y1="-125.12"
       x2="133.94"
       gradientUnits="userSpaceOnUse"
       xlink:href="#linearGradient4744-9"
       y2="-60.75"
       id="linearGradient4798-4-9" />
    <linearGradient
       x1="170.75"
       y1="-23.5"
       x2="130.22"
       gradientUnits="userSpaceOnUse"
       xlink:href="#linearGradient4744-9"
       y2="33.375"
       id="linearGradient4766-3-3" />
    <linearGradient
       x1="213.5"
       x2="181.75"
       y1="-76"
       gradientUnits="userSpaceOnUse"
       xlink:href="#linearGradient4744-9"
       y2="-5.6563"
       id="linearGradient4965-6" />
    <linearGradient
       x1="210.17"
       y1="72.064"
       gradientTransform="translate(0,182)"
       x2="9"
       gradientUnits="userSpaceOnUse"
       xlink:href="#linearGradient4680"
       y2="-213.25"
       id="linearGradient5168-8" />
    <clipPath
       clipPathUnits="userSpaceOnUse"
       id="clipPath5383-0">
      <path
         d="m9 12.25s7.5 13 11.75 27.75 6.25 25.5 6.25 25.5-5.5 12.75-8.25 24.75-5.75 23-5.75 23 5.75 16 9.25 30 3.75 24.25 3.75 24.25-4 10.25-7.5 24.25-5 30.75-5 30.75 9.25-2 28.5 1.25 32.25 6 32.25 6 12.75-2.75 24-6.25 16.25-6.5 16.25-6.5 5.5 0.5 22.5 6.25 29.25 8.5 29.25 8.5 13-2.75 26-5.75 26.5-8 26.5-8-0.75-5 4.25-24.5 8.75-28 8.75-28-0.5-4.5-3.75-19.75-10-29.75-10-29.75 1.75-10.5 6.75-23.75 10.25-26.75 10.25-26.75-4.75-15.25-7.5-29.75-8.25-25.75-8.25-25.75-24.25 9-31.75 10.5-21 5.25-21 5.25-9.75-4.25-22-8.5-29.75-5.5-29.75-5.5-3.25 3.5-22 8-27.5 5.75-27.5 5.75-18.5-9-31.5-11.5-24-2-24.75-1.75z"
         fill="#ceeeab"
         id="path5385-2" />
    </clipPath>
    <clipPath
       clipPathUnits="userSpaceOnUse"
       id="clipPath5426-1">
      <path
         d="m9 12.25s7.5 13 11.75 27.75 6.25 25.5 6.25 25.5-5.5 12.75-8.25 24.75-5.75 23-5.75 23 5.75 16 9.25 30 3.75 24.25 3.75 24.25-4 10.25-7.5 24.25-5 30.75-5 30.75 9.25-2 28.5 1.25 32.25 6 32.25 6 12.75-2.75 24-6.25 16.25-6.5 16.25-6.5 5.5 0.5 22.5 6.25 29.25 8.5 29.25 8.5 13-2.75 26-5.75 26.5-8 26.5-8-0.75-5 4.25-24.5 8.75-28 8.75-28-0.5-4.5-3.75-19.75-10-29.75-10-29.75 1.75-10.5 6.75-23.75 10.25-26.75 10.25-26.75-4.75-15.25-7.5-29.75-8.25-25.75-8.25-25.75-24.25 9-31.75 10.5-21 5.25-21 5.25-9.75-4.25-22-8.5-29.75-5.5-29.75-5.5-3.25 3.5-22 8-27.5 5.75-27.5 5.75-18.5-9-31.5-11.5-24-2-24.75-1.75z"
         fill="#ceeeab"
         id="path5428-0" />
    </clipPath>
    <clipPath
       clipPathUnits="userSpaceOnUse"
       id="clipPath5466-5">
      <path
         d="m9 12.25s7.5 13 11.75 27.75 6.25 25.5 6.25 25.5-5.5 12.75-8.25 24.75-5.75 23-5.75 23 5.75 16 9.25 30 3.75 24.25 3.75 24.25-4 10.25-7.5 24.25-5 30.75-5 30.75 9.25-2 28.5 1.25 32.25 6 32.25 6 12.75-2.75 24-6.25 16.25-6.5 16.25-6.5 5.5 0.5 22.5 6.25 29.25 8.5 29.25 8.5 13-2.75 26-5.75 26.5-8 26.5-8-0.75-5 4.25-24.5 8.75-28 8.75-28-0.5-4.5-3.75-19.75-10-29.75-10-29.75 1.75-10.5 6.75-23.75 10.25-26.75 10.25-26.75-4.75-15.25-7.5-29.75-8.25-25.75-8.25-25.75-24.25 9-31.75 10.5-21 5.25-21 5.25-9.75-4.25-22-8.5-29.75-5.5-29.75-5.5-3.25 3.5-22 8-27.5 5.75-27.5 5.75-18.5-9-31.5-11.5-24-2-24.75-1.75z"
         fill="#ceeeab"
         id="path5468-1" />
    </clipPath>
    <radialGradient
       r="47"
       gradientTransform="matrix(1.0213,0,0,-1.0213,-212.72,173.83)"
       cx="128"
       cy="86"
       gradientUnits="userSpaceOnUse"
       id="radialGradient5751-1">
      <stop
         offset="0"
         stop-opacity="0"
         stop-color="#d0e9f2"
         id="stop5747-0" />
      <stop
         offset=".83933"
         stop-opacity="0"
         stop-color="#d0e9f2"
         id="stop5753-8" />
      <stop
         offset=".94309"
         stop-opacity=".28185"
         stop-color="#d0e9f2"
         id="stop5755-5" />
      <stop
         offset="1"
         stop-color="#d0e9f2"
         id="stop5749-06" />
    </radialGradient>
    <radialGradient
       r="47"
       gradientTransform="matrix(1.0052,1.0052,1.0052,-1.0052,-40.838,43.253)"
       cx="128"
       cy="86"
       gradientUnits="userSpaceOnUse"
       id="radialGradient6256-3">
      <stop
         offset="0"
         stop-opacity="0"
         stop-color="#d0e9f2"
         id="stop5747-3-8" />
      <stop
         offset=".83933"
         stop-opacity="0"
         stop-color="#d0e9f2"
         id="stop5753-6-0" />
      <stop
         offset=".94309"
         stop-opacity=".28185"
         stop-color="#d0e9f2"
         id="stop5755-9-56" />
      <stop
         offset="1"
         stop-color="#d0e9f2"
         id="stop5749-0-6" />
    </radialGradient>
    <radialGradient
       r="38.417"
       gradientTransform="matrix(1.2124982,0,0,0.83914876,-46.347932,24.527964)"
       cx="159.61"
       cy="72.588"
       gradientUnits="userSpaceOnUse"
       id="radialGradient6427-4">
      <stop
         offset="0"
         stop-color="#fff"
         id="stop6848-0" />
      <stop
         offset=".5"
         stop-opacity=".93050"
         stop-color="#fff"
         id="stop6852-0" />
      <stop
         offset="1"
         stop-opacity="0"
         stop-color="#fff"
         id="stop6850-4" />
    </radialGradient>
    <radialGradient
       gradientTransform="matrix(1.2124982,0,0,0.83914876,-45.919932,25.813962)"
       r="38.417"
       cy="72.588"
       cx="159.61"
       gradientUnits="userSpaceOnUse"
       id="radialGradient6482-6">
      <stop
         offset="0"
         stop-color="#fff"
         id="stop4746-3-8-2" />
      <stop
         offset="1"
         stop-opacity="0"
         stop-color="#fff"
         id="stop4748-8-3-6" />
    </radialGradient>
    <filter
       id="filter7286-8">
      <feGaussianBlur
         stdDeviation="4.2868936"
         id="feGaussianBlur7288-7" />
    </filter>
    <clipPath
       clipPathUnits="userSpaceOnUse"
       id="clipPath5466-2-3-2">
      <path
         d="m9 12.25s7.5 13 11.75 27.75 6.25 25.5 6.25 25.5-5.5 12.75-8.25 24.75-5.75 23-5.75 23 5.75 16 9.25 30 3.75 24.25 3.75 24.25-4 10.25-7.5 24.25-5 30.75-5 30.75 9.25-2 28.5 1.25 32.25 6 32.25 6 12.75-2.75 24-6.25 16.25-6.5 16.25-6.5 5.5 0.5 22.5 6.25 29.25 8.5 29.25 8.5 13-2.75 26-5.75 26.5-8 26.5-8-0.75-5 4.25-24.5 8.75-28 8.75-28-0.5-4.5-3.75-19.75-10-29.75-10-29.75 1.75-10.5 6.75-23.75 10.25-26.75 10.25-26.75-4.75-15.25-7.5-29.75-8.25-25.75-8.25-25.75-24.25 9-31.75 10.5-21 5.25-21 5.25-9.75-4.25-22-8.5-29.75-5.5-29.75-5.5-3.25 3.5-22 8-27.5 5.75-27.5 5.75-18.5-9-31.5-11.5-24-2-24.75-1.75z"
         fill="#ceeeab"
         id="path5468-3-2-8" />
    </clipPath>
    <clipPath
       clipPathUnits="userSpaceOnUse"
       id="clipPath5383-0-0-2">
      <path
         d="m9 12.25s7.5 13 11.75 27.75 6.25 25.5 6.25 25.5-5.5 12.75-8.25 24.75-5.75 23-5.75 23 5.75 16 9.25 30 3.75 24.25 3.75 24.25-4 10.25-7.5 24.25-5 30.75-5 30.75 9.25-2 28.5 1.25 32.25 6 32.25 6 12.75-2.75 24-6.25 16.25-6.5 16.25-6.5 5.5 0.5 22.5 6.25 29.25 8.5 29.25 8.5 13-2.75 26-5.75 26.5-8 26.5-8-0.75-5 4.25-24.5 8.75-28 8.75-28-0.5-4.5-3.75-19.75-10-29.75-10-29.75 1.75-10.5 6.75-23.75 10.25-26.75 10.25-26.75-4.75-15.25-7.5-29.75-8.25-25.75-8.25-25.75-24.25 9-31.75 10.5-21 5.25-21 5.25-9.75-4.25-22-8.5-29.75-5.5-29.75-5.5-3.25 3.5-22 8-27.5 5.75-27.5 5.75-18.5-9-31.5-11.5-24-2-24.75-1.75z"
         fill="#ceeeab"
         id="path5385-7-8-9" />
    </clipPath>
    <clipPath
       clipPathUnits="userSpaceOnUse"
       id="clipPath5426-1-6-9">
      <path
         d="m9 12.25s7.5 13 11.75 27.75 6.25 25.5 6.25 25.5-5.5 12.75-8.25 24.75-5.75 23-5.75 23 5.75 16 9.25 30 3.75 24.25 3.75 24.25-4 10.25-7.5 24.25-5 30.75-5 30.75 9.25-2 28.5 1.25 32.25 6 32.25 6 12.75-2.75 24-6.25 16.25-6.5 16.25-6.5 5.5 0.5 22.5 6.25 29.25 8.5 29.25 8.5 13-2.75 26-5.75 26.5-8 26.5-8-0.75-5 4.25-24.5 8.75-28 8.75-28-0.5-4.5-3.75-19.75-10-29.75-10-29.75 1.75-10.5 6.75-23.75 10.25-26.75 10.25-26.75-4.75-15.25-7.5-29.75-8.25-25.75-8.25-25.75-24.25 9-31.75 10.5-21 5.25-21 5.25-9.75-4.25-22-8.5-29.75-5.5-29.75-5.5-3.25 3.5-22 8-27.5 5.75-27.5 5.75-18.5-9-31.5-11.5-24-2-24.75-1.75z"
         fill="#ceeeab"
         id="path5428-0-9-6" />
    </clipPath>
    <linearGradient
       x1="210.17"
       y1="72.064"
       gradientTransform="translate(0,192)"
       x2="9"
       gradientUnits="userSpaceOnUse"
       y2="-213.25"
       id="linearGradient5168-2-9-0">
      <stop
         offset="0"
         id="stop4682-27-3-2" />
      <stop
         offset="1"
         stop-opacity="0"
         id="stop4684-36-5-7" />
    </linearGradient>
    <clipPath
       clipPathUnits="userSpaceOnUse"
       id="clipPath8617-6">
      <path
         style="fill:url(#radialGradient8621-3)"
         fill="url(#radialGradient8621)"
         d="m123.62 141.06c20.832 20.243 54.607 19.289 75.439-2.132s20.832-55.196 0-75.439-54.607-19.289-75.439 2.132-20.832 55.196 0 75.439z"
         id="path8619-1" />
    </clipPath>
    <radialGradient
       r="47"
       gradientTransform="matrix(.80254 .77986 .80254 -.82522 -10.402 73.423)"
       cx="128"
       cy="86"
       gradientUnits="userSpaceOnUse"
       id="radialGradient8621-3">
      <stop
         offset="0"
         stop-opacity="0"
         stop-color="#d0e9f2"
         id="stop5747-3-73-2" />
      <stop
         offset=".83933"
         stop-opacity="0"
         stop-color="#d0e9f2"
         id="stop5753-6-08-1" />
      <stop
         offset=".94309"
         stop-opacity=".28185"
         stop-color="#d0e9f2"
         id="stop5755-9-5-5" />
      <stop
         offset="1"
         stop-color="#d0e9f2"
         id="stop5749-0-4-9" />
    </radialGradient>
    <filter
       id="filter8661-9">
      <feGaussianBlur
         stdDeviation="6.3109704"
         id="feGaussianBlur8663-1" />
    </filter>
    <filter
       id="filter8725-4">
      <feGaussianBlur
         stdDeviation="4.4575"
         id="feGaussianBlur8727-9" />
    </filter>
    <linearGradient
       x1="122"
       y1="245.45"
       x2="122"
       gradientUnits="userSpaceOnUse"
       y2="4.302"
       id="linearGradient8735-1">
      <stop
         offset="0"
         id="stop8731-0" />
      <stop
         offset="1"
         stop-opacity="0"
         id="stop8733-7" />
    </linearGradient>
    <clipPath
       clipPathUnits="userSpaceOnUse"
       id="clipPath8750-5">
      <path
         fill="url(#linearGradient8754)"
         d="m9 22.578s7.5 12.393 11.75 26.8c4.25 14.406 6.25 24.995 6.25 24.995s-5.5 13.195-8.25 25.417c-2.75 12.22-5.75 23.46-5.75 23.46s5.75 15.535 9.25 29.252 3.75 23.947 3.75 23.947-4 10.574-7.5 24.857-5 31.154-5 31.154 9.25-2.7481 28.5-1.055 32.25 3.3917 32.25 3.3917 12.75-3.7812 24-8.1911 16.25-7.8143 16.25-7.8143 5.5 0.0552 22.5 4.4302c17 4.3751 29.25 6.1343 29.25 6.1343s13-3.8014 26-7.8528 26.5-10.143 26.5-10.143-0.75-4.9393 4.25-24.844c5-19.904 8.75-28.708 8.75-28.708s-0.5145-4.4553-3.75-19.447c-1.75-8.1085-2.25-4.068-2.25-4.068s16.264-26.155 16.5-40.334c0.25-15.02-7.25-36.413-7.25-36.413s-4.75-14.866-7.5-29.143c-2.75-14.278-8.25-25.083-8.25-25.083s-24.25 10.961-31.75 13.068c-7.5 2.1066-21 6.9484-21 6.9484s-9.75-3.4614-22-6.7207c-12.25-3.2592-29.75-3.0939-29.75-3.0939s-3.25 3.7629-22 9.7793c-18.75 6.0165-27.5 7.9741-27.5 7.9741s-18.5-7.5038-31.5-8.9524-24-0.05894-24.75 0.25172z"
         opacity=".039130"
         id="path8752-8" />
    </clipPath>
  </defs>
  <sodipodi:namedview
     id="base"
     pagecolor="#ffffff"
     bordercolor="#ff0000"
     borderopacity="1"
     inkscape:pageopacity="0.0"
     inkscape:pageshadow="2"
     inkscape:zoom="0.49497475"
     inkscape:cx="816.46717"
     inkscape:cy="427.50334"
     inkscape:document-units="mm"
     inkscape:current-layer="layer1"
     showgrid="false"
     units="px"
     inkscape:pagecheckerboard="false"
     showguides="false"
     inkscape:window-width="1920"
     inkscape:window-height="1009"
     inkscape:window-x="0"
     inkscape:window-y="34"
     inkscape:window-maximized="1"
     borderlayer="true"
     inkscape:snap-object-midpoints="true"
     inkscape:snap-others="false"
     inkscape:object-nodes="false" />
  <metadata
     id="metadata5">
    <rdf:RDF>
      <cc:Work
         rdf:about="">
        <dc:format>image/svg+xml</dc:format>
        <dc:type
           rdf:resource="http://purl.org/dc/dcmitype/StillImage" />
        <dc:title />
        <cc:license
           rdf:resource="http://creativecommons.org/publicdomain/zero/1.0/" />
        <dc:creator>
          <cc:Agent>
            <dc:title>rugk</dc:title>
          </cc:Agent>
        </dc:creator>
      </cc:Work>
      <cc:License
         rdf:about="http://creativecommons.org/publicdomain/zero/1.0/">
        <cc:permits
           rdf:resource="http://creativecommons.org/ns#Reproduction" />
        <cc:permits
           rdf:resource="http://creativecommons.org/ns#Distribution" />
        <cc:permits
           rdf:resource="http://creativecommons.org/ns#DerivativeWorks" />
      </cc:License>
    </rdf:RDF>
  </metadata>
  <g
     inkscape:label="Ebene 1"
     inkscape:groupmode="layer"
     id="layer1"
     transform="translate(0,-11.249983)" />
</svg>
